 http://img51.imageshack.us/img51/484/hottubtimemachine2010.jpg

Country.......: USA
Genre.........: Comedy, Sci-Fi, Adventure
Date release..: 26.03.2010 [World]
Director......: Steve Pink
Writers.......: Josh Heald, Sean Anders
Duration......: 95 min.
More..........: http://www.imdb.com/title/tt1231587
Trailer.......: http://www.imdb.com/video/imdb/vi4173726745
Trailer.......:

Pilot :
Group of guys decided to have fun, because in life they too did not go. Going to a place where they spent the best days of my youth. During the joint dip occurs in August for an incredible, incredible, they retreat in time to his youth. Then there was Facebook, or the Internet, how to cope?

Cats :
John Cusack 	... 	Adam
Clark Duke 	... 	Jacob
Craig Robinson 	... 	Nick Weber
Rob Corddry 	... 	Lou Dorchen
Sebastian Stan 	... 	Blaine
Lyndsy Fonseca 	... 	Jenny
Crispin Glover 	... 	Phil
Chevy Chase 	... 	The Repairman
Charlie McDermott 	... 	Chaz
Lizzy Caplan 	... 	April
Collette Wolfe 	... 	Kelly
Aliu Oyofo 	... 	Young Nick
Jake Rose 	... 	Young Adam
Brook Bennett 	... 	Young Lou
Crystal Lowe 	... 	Zoe 

Data Technical :
!!! SAMPLE !!!
Audio.....: Lector Polish
Subtitles.: None
Format                           : AVI
Format/Info                      : Audio Video Interleave
File size                        : 298 MiB
Duration                         : 1h 34mn
Overall bit rate                 : 440 Kbps
Writing application              : VirtualDubMod 1.5.10.2 (build 2542/release)
Writing library                  : VirtualDubMod build 2542/release
Video
ID                               : 0
Format                           : MPEG-4 Visual
Format profile                   : Advanced Simple@L5
Format settings, BVOP            : Yes
Format settings, QPel            : No
Format settings, GMC             : No warppoints
Format settings, Matrix          : Default (H.263)
Muxing mode                      : Packed bitstream
Codec ID                         : XVID
Codec ID/Hint                    : XviD
Duration                         : 1h 34mn
Bit rate                         : 302 Kbps
Width                            : 640 pixels
Height                           : 360 pixels
Display aspect ratio             : 16:9
Frame rate                       : 25.000 fps
Color space                      : YUV
Chroma subsampling               : 4:2:0
Bit depth                        : 8 bits
Scan type                        : Progressive
Bits/(Pixel*Frame)               : 0.052
Stream size                      : 205 MiB (69%)
Writing library                  : XviD 1.2.1
Audio
ID                               : 1
Format                           : MPEG Audio
Format version                   : Version 1
Format profile                   : Layer 3
Mode                             : Joint stereo
Mode extension                   : MS Stereo
Codec ID                         : 55
Codec ID/Hint                    : MP3
Duration                         : 1h 34mn
Bit rate mode                    : Constant
Bit rate                         : 128 Kbps
Channel(s)                       : 2 channels
Sampling rate                    : 44.1 KHz
Stream size                      : 86.8 MiB (29%)
Alignment                        : Split accross interleaves
Interleave, duration             : 40 ms (1.00 video frame)
Interleave, preload duration     : 500 ms
Writing library                  : LAME3.98

Screen : 
http://img153.imageshack.us/img153/6734/hottubtimemachine2010s4.jpg 
http://img88.imageshack.us/img88/4916/hottubtimemachine2010s1.jpg 
http://img96.imageshack.us/img96/821/hottubtimemachine2010s2.jpg 
http://img688.imageshack.us/img688/408/hottubtimemachine2010s3.jpg